<?xml version="1.0" encoding="UTF-8"?>
<!DOCTYPE svg PUBLIC "-//W3C//DTD SVG 1.1//EN" "http://www.w3.org/Graphics/SVG/1.1/DTD/svg11.dtd">
<svg width="160mm" height="90mm" viewBox="0 0 16000 9000" version="1.1" xmlns="http://www.w3.org/2000/svg" stroke-width="28.222" stroke-linejoin="round" xml:space="preserve">
 <path fill="rgb(255,255,255)" stroke="none" d="M 8000,8999 L 0,8999 0,0 15999,0 15999,8999 8000,8999 Z"/>
 <path fill="none" stroke="rgb(179,179,179)" stroke-linejoin="round" d="M 9001,6370 L 2323,6370 2323,1475 15679,1475 15679,6370 9001,6370 Z"/>
 <path fill="none" stroke="rgb(179,179,179)" stroke-linejoin="round" d="M 15679,6369 L 2323,6369"/>
 <path fill="none" stroke="rgb(179,179,179)" stroke-linejoin="round" d="M 15679,5825 L 2323,5825"/>
 <path fill="none" stroke="rgb(179,179,179)" stroke-linejoin="round" d="M 15679,5281 L 2323,5281"/>
 <path fill="none" stroke="rgb(179,179,179)" stroke-linejoin="round" d="M 15679,4737 L 2323,4737"/>
 <path fill="none" stroke="rgb(179,179,179)" stroke-linejoin="round" d="M 15679,4194 L 2323,4194"/>
 <path fill="none" stroke="rgb(179,179,179)" stroke-linejoin="round" d="M 15679,3650 L 2323,3650"/>
 <path fill="none" stroke="rgb(179,179,179)" stroke-linejoin="round" d="M 15679,3105 L 2323,3105"/>
 <path fill="none" stroke="rgb(179,179,179)" stroke-linejoin="round" d="M 15679,2561 L 2323,2561"/>
 <path fill="none" stroke="rgb(179,179,179)" stroke-linejoin="round" d="M 15679,2018 L 2323,2018"/>
 <path fill="none" stroke="rgb(179,179,179)" stroke-linejoin="round" d="M 15679,1474 L 2323,1474"/>
 <path fill="none" stroke="rgb(179,179,179)" stroke-linejoin="round" d="M 2323,6519 L 2323,6369"/>
 <path fill="none" stroke="rgb(179,179,179)" stroke-linejoin="round" d="M 2323,6519 L 2323,6369"/>
 <path fill="none" stroke="rgb(179,179,179)" stroke-linejoin="round" d="M 2538,6519 L 2538,6369"/>
 <path fill="none" stroke="rgb(179,179,179)" stroke-linejoin="round" d="M 2538,6519 L 2538,6369"/>
 <path fill="none" stroke="rgb(179,179,179)" stroke-linejoin="round" d="M 2753,6519 L 2753,6369"/>
 <path fill="none" stroke="rgb(179,179,179)" stroke-linejoin="round" d="M 2753,6519 L 2753,6369"/>
 <path fill="none" stroke="rgb(179,179,179)" stroke-linejoin="round" d="M 2969,6519 L 2969,6369"/>
 <path fill="none" stroke="rgb(179,179,179)" stroke-linejoin="round" d="M 2969,6519 L 2969,6369"/>
 <path fill="none" stroke="rgb(179,179,179)" stroke-linejoin="round" d="M 3184,6519 L 3184,6369"/>
 <path fill="none" stroke="rgb(179,179,179)" stroke-linejoin="round" d="M 3184,6519 L 3184,6369"/>
 <path fill="none" stroke="rgb(179,179,179)" stroke-linejoin="round" d="M 3400,6519 L 3400,6369"/>
 <path fill="none" stroke="rgb(179,179,179)" stroke-linejoin="round" d="M 3400,6519 L 3400,6369"/>
 <path fill="none" stroke="rgb(179,179,179)" stroke-linejoin="round" d="M 3615,6519 L 3615,6369"/>
 <path fill="none" stroke="rgb(179,179,179)" stroke-linejoin="round" d="M 3615,6519 L 3615,6369"/>
 <path fill="none" stroke="rgb(179,179,179)" stroke-linejoin="round" d="M 3831,6519 L 3831,6369"/>
 <path fill="none" stroke="rgb(179,179,179)" stroke-linejoin="round" d="M 3831,6519 L 3831,6369"/>
 <path fill="none" stroke="rgb(179,179,179)" stroke-linejoin="round" d="M 4046,6519 L 4046,6369"/>
 <path fill="none" stroke="rgb(179,179,179)" stroke-linejoin="round" d="M 4046,6519 L 4046,6369"/>
 <path fill="none" stroke="rgb(179,179,179)" stroke-linejoin="round" d="M 4261,6519 L 4261,6369"/>
 <path fill="none" stroke="rgb(179,179,179)" stroke-linejoin="round" d="M 4261,6519 L 4261,6369"/>
 <path fill="none" stroke="rgb(179,179,179)" stroke-linejoin="round" d="M 4477,6519 L 4477,6369"/>
 <path fill="none" stroke="rgb(179,179,179)" stroke-linejoin="round" d="M 4477,6519 L 4477,6369"/>
 <path fill="none" stroke="rgb(179,179,179)" stroke-linejoin="round" d="M 4692,6519 L 4692,6369"/>
 <path fill="none" stroke="rgb(179,179,179)" stroke-linejoin="round" d="M 4692,6519 L 4692,6369"/>
 <path fill="none" stroke="rgb(179,179,179)" stroke-linejoin="round" d="M 4908,6519 L 4908,6369"/>
 <path fill="none" stroke="rgb(179,179,179)" stroke-linejoin="round" d="M 4908,6519 L 4908,6369"/>
 <path fill="none" stroke="rgb(179,179,179)" stroke-linejoin="round" d="M 5123,6519 L 5123,6369"/>
 <path fill="none" stroke="rgb(179,179,179)" stroke-linejoin="round" d="M 5123,6519 L 5123,6369"/>
 <path fill="none" stroke="rgb(179,179,179)" stroke-linejoin="round" d="M 5339,6519 L 5339,6369"/>
 <path fill="none" stroke="rgb(179,179,179)" stroke-linejoin="round" d="M 5339,6519 L 5339,6369"/>
 <path fill="none" stroke="rgb(179,179,179)" stroke-linejoin="round" d="M 5554,6519 L 5554,6369"/>
 <path fill="none" stroke="rgb(179,179,179)" stroke-linejoin="round" d="M 5554,6519 L 5554,6369"/>
 <path fill="none" stroke="rgb(179,179,179)" stroke-linejoin="round" d="M 5769,6519 L 5769,6369"/>
 <path fill="none" stroke="rgb(179,179,179)" stroke-linejoin="round" d="M 5769,6519 L 5769,6369"/>
 <path fill="none" stroke="rgb(179,179,179)" stroke-linejoin="round" d="M 5985,6519 L 5985,6369"/>
 <path fill="none" stroke="rgb(179,179,179)" stroke-linejoin="round" d="M 5985,6519 L 5985,6369"/>
 <path fill="none" stroke="rgb(179,179,179)" stroke-linejoin="round" d="M 6200,6519 L 6200,6369"/>
 <path fill="none" stroke="rgb(179,179,179)" stroke-linejoin="round" d="M 6200,6519 L 6200,6369"/>
 <path fill="none" stroke="rgb(179,179,179)" stroke-linejoin="round" d="M 6416,6519 L 6416,6369"/>
 <path fill="none" stroke="rgb(179,179,179)" stroke-linejoin="round" d="M 6416,6519 L 6416,6369"/>
 <path fill="none" stroke="rgb(179,179,179)" stroke-linejoin="round" d="M 6631,6519 L 6631,6369"/>
 <path fill="none" stroke="rgb(179,179,179)" stroke-linejoin="round" d="M 6631,6519 L 6631,6369"/>
 <path fill="none" stroke="rgb(179,179,179)" stroke-linejoin="round" d="M 6847,6519 L 6847,6369"/>
 <path fill="none" stroke="rgb(179,179,179)" stroke-linejoin="round" d="M 6847,6519 L 6847,6369"/>
 <path fill="none" stroke="rgb(179,179,179)" stroke-linejoin="round" d="M 7062,6519 L 7062,6369"/>
 <path fill="none" stroke="rgb(179,179,179)" stroke-linejoin="round" d="M 7062,6519 L 7062,6369"/>
 <path fill="none" stroke="rgb(179,179,179)" stroke-linejoin="round" d="M 7278,6519 L 7278,6369"/>
 <path fill="none" stroke="rgb(179,179,179)" stroke-linejoin="round" d="M 7278,6519 L 7278,6369"/>
 <path fill="none" stroke="rgb(179,179,179)" stroke-linejoin="round" d="M 7493,6519 L 7493,6369"/>
 <path fill="none" stroke="rgb(179,179,179)" stroke-linejoin="round" d="M 7493,6519 L 7493,6369"/>
 <path fill="none" stroke="rgb(179,179,179)" stroke-linejoin="round" d="M 7708,6519 L 7708,6369"/>
 <path fill="none" stroke="rgb(179,179,179)" stroke-linejoin="round" d="M 7708,6519 L 7708,6369"/>
 <path fill="none" stroke="rgb(179,179,179)" stroke-linejoin="round" d="M 7924,6519 L 7924,6369"/>
 <path fill="none" stroke="rgb(179,179,179)" stroke-linejoin="round" d="M 7924,6519 L 7924,6369"/>
 <path fill="none" stroke="rgb(179,179,179)" stroke-linejoin="round" d="M 8138,6519 L 8138,6369"/>
 <path fill="none" stroke="rgb(179,179,179)" stroke-linejoin="round" d="M 8138,6519 L 8138,6369"/>
 <path fill="none" stroke="rgb(179,179,179)" stroke-linejoin="round" d="M 8354,6519 L 8354,6369"/>
 <path fill="none" stroke="rgb(179,179,179)" stroke-linejoin="round" d="M 8354,6519 L 8354,6369"/>
 <path fill="none" stroke="rgb(179,179,179)" stroke-linejoin="round" d="M 8569,6519 L 8569,6369"/>
 <path fill="none" stroke="rgb(179,179,179)" stroke-linejoin="round" d="M 8569,6519 L 8569,6369"/>
 <path fill="none" stroke="rgb(179,179,179)" stroke-linejoin="round" d="M 8785,6519 L 8785,6369"/>
 <path fill="none" stroke="rgb(179,179,179)" stroke-linejoin="round" d="M 8785,6519 L 8785,6369"/>
 <path fill="none" stroke="rgb(179,179,179)" stroke-linejoin="round" d="M 9000,6519 L 9000,6369"/>
 <path fill="none" stroke="rgb(179,179,179)" stroke-linejoin="round" d="M 9000,6519 L 9000,6369"/>
 <path fill="none" stroke="rgb(179,179,179)" stroke-linejoin="round" d="M 9215,6519 L 9215,6369"/>
 <path fill="none" stroke="rgb(179,179,179)" stroke-linejoin="round" d="M 9215,6519 L 9215,6369"/>
 <path fill="none" stroke="rgb(179,179,179)" stroke-linejoin="round" d="M 9431,6519 L 9431,6369"/>
 <path fill="none" stroke="rgb(179,179,179)" stroke-linejoin="round" d="M 9431,6519 L 9431,6369"/>
 <path fill="none" stroke="rgb(179,179,179)" stroke-linejoin="round" d="M 9646,6519 L 9646,6369"/>
 <path fill="none" stroke="rgb(179,179,179)" stroke-linejoin="round" d="M 9646,6519 L 9646,6369"/>
 <path fill="none" stroke="rgb(179,179,179)" stroke-linejoin="round" d="M 9862,6519 L 9862,6369"/>
 <path fill="none" stroke="rgb(179,179,179)" stroke-linejoin="round" d="M 9862,6519 L 9862,6369"/>
 <path fill="none" stroke="rgb(179,179,179)" stroke-linejoin="round" d="M 10077,6519 L 10077,6369"/>
 <path fill="none" stroke="rgb(179,179,179)" stroke-linejoin="round" d="M 10077,6519 L 10077,6369"/>
 <path fill="none" stroke="rgb(179,179,179)" stroke-linejoin="round" d="M 10293,6519 L 10293,6369"/>
 <path fill="none" stroke="rgb(179,179,179)" stroke-linejoin="round" d="M 10293,6519 L 10293,6369"/>
 <path fill="none" stroke="rgb(179,179,179)" stroke-linejoin="round" d="M 10508,6519 L 10508,6369"/>
 <path fill="none" stroke="rgb(179,179,179)" stroke-linejoin="round" d="M 10508,6519 L 10508,6369"/>
 <path fill="none" stroke="rgb(179,179,179)" stroke-linejoin="round" d="M 10723,6519 L 10723,6369"/>
 <path fill="none" stroke="rgb(179,179,179)" stroke-linejoin="round" d="M 10723,6519 L 10723,6369"/>
 <path fill="none" stroke="rgb(179,179,179)" stroke-linejoin="round" d="M 10939,6519 L 10939,6369"/>
 <path fill="none" stroke="rgb(179,179,179)" stroke-linejoin="round" d="M 10939,6519 L 10939,6369"/>
 <path fill="none" stroke="rgb(179,179,179)" stroke-linejoin="round" d="M 11154,6519 L 11154,6369"/>
 <path fill="none" stroke="rgb(179,179,179)" stroke-linejoin="round" d="M 11154,6519 L 11154,6369"/>
 <path fill="none" stroke="rgb(179,179,179)" stroke-linejoin="round" d="M 11370,6519 L 11370,6369"/>
 <path fill="none" stroke="rgb(179,179,179)" stroke-linejoin="round" d="M 11370,6519 L 11370,6369"/>
 <path fill="none" stroke="rgb(179,179,179)" stroke-linejoin="round" d="M 11585,6519 L 11585,6369"/>
 <path fill="none" stroke="rgb(179,179,179)" stroke-linejoin="round" d="M 11585,6519 L 11585,6369"/>
 <path fill="none" stroke="rgb(179,179,179)" stroke-linejoin="round" d="M 11801,6519 L 11801,6369"/>
 <path fill="none" stroke="rgb(179,179,179)" stroke-linejoin="round" d="M 11801,6519 L 11801,6369"/>
 <path fill="none" stroke="rgb(179,179,179)" stroke-linejoin="round" d="M 12016,6519 L 12016,6369"/>
 <path fill="none" stroke="rgb(179,179,179)" stroke-linejoin="round" d="M 12016,6519 L 12016,6369"/>
 <path fill="none" stroke="rgb(179,179,179)" stroke-linejoin="round" d="M 12232,6519 L 12232,6369"/>
 <path fill="none" stroke="rgb(179,179,179)" stroke-linejoin="round" d="M 12232,6519 L 12232,6369"/>
 <path fill="none" stroke="rgb(179,179,179)" stroke-linejoin="round" d="M 12447,6519 L 12447,6369"/>
 <path fill="none" stroke="rgb(179,179,179)" stroke-linejoin="round" d="M 12447,6519 L 12447,6369"/>
 <path fill="none" stroke="rgb(179,179,179)" stroke-linejoin="round" d="M 12662,6519 L 12662,6369"/>
 <path fill="none" stroke="rgb(179,179,179)" stroke-linejoin="round" d="M 12662,6519 L 12662,6369"/>
 <path fill="none" stroke="rgb(179,179,179)" stroke-linejoin="round" d="M 12878,6519 L 12878,6369"/>
 <path fill="none" stroke="rgb(179,179,179)" stroke-linejoin="round" d="M 12878,6519 L 12878,6369"/>
 <path fill="none" stroke="rgb(179,179,179)" stroke-linejoin="round" d="M 13093,6519 L 13093,6369"/>
 <path fill="none" stroke="rgb(179,179,179)" stroke-linejoin="round" d="M 13093,6519 L 13093,6369"/>
 <path fill="none" stroke="rgb(179,179,179)" stroke-linejoin="round" d="M 13309,6519 L 13309,6369"/>
 <path fill="none" stroke="rgb(179,179,179)" stroke-linejoin="round" d="M 13309,6519 L 13309,6369"/>
 <path fill="none" stroke="rgb(179,179,179)" stroke-linejoin="round" d="M 13524,6519 L 13524,6369"/>
 <path fill="none" stroke="rgb(179,179,179)" stroke-linejoin="round" d="M 13524,6519 L 13524,6369"/>
 <path fill="none" stroke="rgb(179,179,179)" stroke-linejoin="round" d="M 13740,6519 L 13740,6369"/>
 <path fill="none" stroke="rgb(179,179,179)" stroke-linejoin="round" d="M 13740,6519 L 13740,6369"/>
 <path fill="none" stroke="rgb(179,179,179)" stroke-linejoin="round" d="M 13955,6519 L 13955,6369"/>
 <path fill="none" stroke="rgb(179,179,179)" stroke-linejoin="round" d="M 13955,6519 L 13955,6369"/>
 <path fill="none" stroke="rgb(179,179,179)" stroke-linejoin="round" d="M 14170,6519 L 14170,6369"/>
 <path fill="none" stroke="rgb(179,179,179)" stroke-linejoin="round" d="M 14170,6519 L 14170,6369"/>
 <path fill="none" stroke="rgb(179,179,179)" stroke-linejoin="round" d="M 14386,6519 L 14386,6369"/>
 <path fill="none" stroke="rgb(179,179,179)" stroke-linejoin="round" d="M 14386,6519 L 14386,6369"/>
 <path fill="none" stroke="rgb(179,179,179)" stroke-linejoin="round" d="M 14601,6519 L 14601,6369"/>
 <path fill="none" stroke="rgb(179,179,179)" stroke-linejoin="round" d="M 14601,6519 L 14601,6369"/>
 <path fill="none" stroke="rgb(179,179,179)" stroke-linejoin="round" d="M 14817,6519 L 14817,6369"/>
 <path fill="none" stroke="rgb(179,179,179)" stroke-linejoin="round" d="M 14817,6519 L 14817,6369"/>
 <path fill="none" stroke="rgb(179,179,179)" stroke-linejoin="round" d="M 15032,6519 L 15032,6369"/>
 <path fill="none" stroke="rgb(179,179,179)" stroke-linejoin="round" d="M 15032,6519 L 15032,6369"/>
 <path fill="none" stroke="rgb(179,179,179)" stroke-linejoin="round" d="M 15248,6519 L 15248,6369"/>
 <path fill="none" stroke="rgb(179,179,179)" stroke-linejoin="round" d="M 15248,6519 L 15248,6369"/>
 <path fill="none" stroke="rgb(179,179,179)" stroke-linejoin="round" d="M 15463,6519 L 15463,6369"/>
 <path fill="none" stroke="rgb(179,179,179)" stroke-linejoin="round" d="M 15463,6519 L 15463,6369"/>
 <path fill="none" stroke="rgb(179,179,179)" stroke-linejoin="round" d="M 15679,6519 L 15679,6369"/>
 <path fill="none" stroke="rgb(179,179,179)" stroke-linejoin="round" d="M 15679,6519 L 15679,6369"/>
 <path fill="none" stroke="rgb(179,179,179)" stroke-linejoin="round" d="M 2323,6369 L 15679,6369"/>
 <path fill="none" stroke="rgb(179,179,179)" stroke-linejoin="round" d="M 2173,6369 L 2323,6369"/>
 <path fill="none" stroke="rgb(179,179,179)" stroke-linejoin="round" d="M 2173,6369 L 2323,6369"/>
 <path fill="none" stroke="rgb(179,179,179)" stroke-linejoin="round" d="M 2173,5825 L 2323,5825"/>
 <path fill="none" stroke="rgb(179,179,179)" stroke-linejoin="round" d="M 2173,5825 L 2323,5825"/>
 <path fill="none" stroke="rgb(179,179,179)" stroke-linejoin="round" d="M 2173,5281 L 2323,5281"/>
 <path fill="none" stroke="rgb(179,179,179)" stroke-linejoin="round" d="M 2173,5281 L 2323,5281"/>
 <path fill="none" stroke="rgb(179,179,179)" stroke-linejoin="round" d="M 2173,4737 L 2323,4737"/>
 <path fill="none" stroke="rgb(179,179,179)" stroke-linejoin="round" d="M 2173,4737 L 2323,4737"/>
 <path fill="none" stroke="rgb(179,179,179)" stroke-linejoin="round" d="M 2173,4194 L 2323,4194"/>
 <path fill="none" stroke="rgb(179,179,179)" stroke-linejoin="round" d="M 2173,4194 L 2323,4194"/>
 <path fill="none" stroke="rgb(179,179,179)" stroke-linejoin="round" d="M 2173,3650 L 2323,3650"/>
 <path fill="none" stroke="rgb(179,179,179)" stroke-linejoin="round" d="M 2173,3650 L 2323,3650"/>
 <path fill="none" stroke="rgb(179,179,179)" stroke-linejoin="round" d="M 2173,3105 L 2323,3105"/>
 <path fill="none" stroke="rgb(179,179,179)" stroke-linejoin="round" d="M 2173,3105 L 2323,3105"/>
 <path fill="none" stroke="rgb(179,179,179)" stroke-linejoin="round" d="M 2173,2562 L 2323,2562"/>
 <path fill="none" stroke="rgb(179,179,179)" stroke-linejoin="round" d="M 2173,2562 L 2323,2562"/>
 <path fill="none" stroke="rgb(179,179,179)" stroke-linejoin="round" d="M 2173,2018 L 2323,2018"/>
 <path fill="none" stroke="rgb(179,179,179)" stroke-linejoin="round" d="M 2173,2018 L 2323,2018"/>
 <path fill="none" stroke="rgb(179,179,179)" stroke-linejoin="round" d="M 2173,1474 L 2323,1474"/>
 <path fill="none" stroke="rgb(179,179,179)" stroke-linejoin="round" d="M 2173,1474 L 2323,1474"/>
 <path fill="none" stroke="rgb(179,179,179)" stroke-linejoin="round" d="M 2323,6369 L 2323,1474"/>
 <path fill="rgb(0,69,134)" stroke="none" d="M 15517,6369 L 15625,6369 15625,4516 15517,4516 15517,6369 Z"/>
 <path fill="rgb(0,69,134)" stroke="none" d="M 15301,6369 L 15409,6369 15409,5610 15301,5610 15301,6369 Z"/>
 <path fill="rgb(0,69,134)" stroke="none" d="M 15086,6369 L 15194,6369 15194,5237 15086,5237 15086,6369 Z"/>
 <path fill="rgb(0,69,134)" stroke="none" d="M 14871,6369 L 14978,6369 14978,6111 14871,6111 14871,6369 Z"/>
 <path fill="rgb(0,69,134)" stroke="none" d="M 14655,6369 L 14763,6369 14763,4100 14655,4100 14655,6369 Z"/>
 <path fill="rgb(0,69,134)" stroke="none" d="M 14440,6369 L 14547,6369 14547,4722 14440,4722 14440,6369 Z"/>
 <path fill="rgb(0,69,134)" stroke="none" d="M 14224,6369 L 14332,6369 14332,5592 14224,5592 14224,6369 Z"/>
 <path fill="rgb(0,69,134)" stroke="none" d="M 14009,6369 L 14117,6369 14117,1765 14009,1765 14009,6369 Z"/>
 <path fill="rgb(0,69,134)" stroke="none" d="M 13793,6369 L 13901,6369 13901,4865 13793,4865 13793,6369 Z"/>
 <path fill="rgb(0,69,134)" stroke="none" d="M 13578,6369 L 13686,6369 13686,4960 13578,4960 13578,6369 Z"/>
 <path fill="rgb(0,69,134)" stroke="none" d="M 13363,6369 L 13470,6369 13470,6065 13363,6065 13363,6369 Z"/>
 <path fill="rgb(0,69,134)" stroke="none" d="M 13147,6369 L 13255,6369 13255,5900 13147,5900 13147,6369 Z"/>
 <path fill="rgb(0,69,134)" stroke="none" d="M 12932,6369 L 13039,6369 13039,6353 12932,6353 12932,6369 Z"/>
 <path fill="rgb(0,69,134)" stroke="none" d="M 12716,6369 L 12824,6369 12824,6200 12716,6200 12716,6369 Z"/>
 <path fill="rgb(0,69,134)" stroke="none" d="M 12501,6369 L 12609,6369 12609,6105 12501,6105 12501,6369 Z"/>
 <path fill="rgb(0,69,134)" stroke="none" d="M 12285,6369 L 12393,6369 12393,5379 12285,5379 12285,6369 Z"/>
 <path fill="rgb(0,69,134)" stroke="none" d="M 12070,6369 L 12178,6369 12178,6169 12070,6169 12070,6369 Z"/>
 <path fill="rgb(0,69,134)" stroke="none" d="M 11855,6369 L 11962,6369 11962,5105 11855,5105 11855,6369 Z"/>
 <path fill="rgb(0,69,134)" stroke="none" d="M 11639,6369 L 11747,6369 11747,6077 11639,6077 11639,6369 Z"/>
 <path fill="rgb(0,69,134)" stroke="none" d="M 11424,6369 L 11531,6369 11531,6162 11424,6162 11424,6369 Z"/>
 <path fill="rgb(0,69,134)" stroke="none" d="M 11208,6369 L 11316,6369 11316,5461 11208,5461 11208,6369 Z"/>
 <path fill="rgb(0,69,134)" stroke="none" d="M 10993,6369 L 11100,6369 11100,5422 10993,5422 10993,6369 Z"/>
 <path fill="rgb(0,69,134)" stroke="none" d="M 10777,6369 L 10885,6369 10885,5733 10777,5733 10777,6369 Z"/>
 <path fill="rgb(0,69,134)" stroke="none" d="M 10562,6369 L 10670,6369 10670,6020 10562,6020 10562,6369 Z"/>
 <path fill="rgb(0,69,134)" stroke="none" d="M 10346,6369 L 10454,6369 10454,6343 10346,6343 10346,6369 Z"/>
 <path fill="rgb(0,69,134)" stroke="none" d="M 10131,6369 L 10239,6369 10239,6345 10131,6345 10131,6369 Z"/>
 <path fill="rgb(0,69,134)" stroke="none" d="M 9916,6369 L 10023,6369 10023,6237 9916,6237 9916,6369 Z"/>
 <path fill="rgb(0,69,134)" stroke="none" d="M 9700,6369 L 9808,6369 9808,5699 9700,5699 9700,6369 Z"/>
 <path fill="rgb(0,69,134)" stroke="none" d="M 9485,6369 L 9592,6369 9592,5764 9485,5764 9485,6369 Z"/>
 <path fill="rgb(0,69,134)" stroke="none" d="M 9269,6369 L 9377,6369 9377,5586 9269,5586 9269,6369 Z"/>
 <path fill="rgb(0,69,134)" stroke="none" d="M 9054,6369 L 9162,6369 9162,6366 9054,6366 9054,6369 Z"/>
 <path fill="rgb(0,69,134)" stroke="none" d="M 8838,6369 L 8946,6369 8946,6367 8838,6367 8838,6369 Z"/>
 <path fill="rgb(0,69,134)" stroke="none" d="M 8623,6369 L 8731,6369 8731,6366 8623,6366 8623,6369 Z"/>
 <path fill="rgb(0,69,134)" stroke="none" d="M 8408,6369 L 8515,6369 8515,6359 8408,6359 8408,6369 Z"/>
 <path fill="rgb(0,69,134)" stroke="none" d="M 8192,6369 L 8300,6369 8300,6367 8192,6367 8192,6369 Z"/>
 <path fill="rgb(0,69,134)" stroke="none" d="M 7978,6369 L 8084,6369 8084,6367 7978,6367 7978,6369 Z"/>
 <path fill="rgb(0,69,134)" stroke="none" d="M 7762,6369 L 7870,6369 7870,6217 7762,6217 7762,6369 Z"/>
 <path fill="rgb(0,69,134)" stroke="none" d="M 7547,6369 L 7655,6369 7655,6116 7547,6116 7547,6369 Z"/>
 <path fill="rgb(0,69,134)" stroke="none" d="M 7331,6369 L 7439,6369 7439,6341 7331,6341 7331,6369 Z"/>
 <path fill="rgb(0,69,134)" stroke="none" d="M 7116,6369 L 7224,6369 7224,6367 7116,6367 7116,6369 Z"/>
 <path fill="rgb(0,69,134)" stroke="none" d="M 6901,6369 L 7008,6369 7008,6363 6901,6363 6901,6369 Z"/>
 <path fill="rgb(0,69,134)" stroke="none" d="M 6685,6369 L 6793,6369 6793,6355 6685,6355 6685,6369 Z"/>
 <path fill="rgb(0,69,134)" stroke="none" d="M 6470,6369 L 6577,6369 6577,6130 6470,6130 6470,6369 Z"/>
 <path fill="rgb(0,69,134)" stroke="none" d="M 6254,6369 L 6362,6369 6362,6367 6254,6367 6254,6369 Z"/>
 <path fill="rgb(0,69,134)" stroke="none" d="M 6039,6369 L 6146,6369 6146,6364 6039,6364 6039,6369 Z"/>
 <path fill="rgb(0,69,134)" stroke="none" d="M 5823,6369 L 5931,6369 5931,6368 5823,6368 5823,6369 Z"/>
 <path fill="rgb(0,69,134)" stroke="none" d="M 5608,6369 L 5716,6369 5716,6338 5608,6338 5608,6369 Z"/>
 <path fill="rgb(0,69,134)" stroke="none" d="M 5392,6369 L 5500,6369 5500,6364 5392,6364 5392,6369 Z"/>
 <path fill="rgb(0,69,134)" stroke="none" d="M 5177,6369 L 5285,6369 5285,6367 5177,6367 5177,6369 Z"/>
 <path fill="rgb(0,69,134)" stroke="none" d="M 4962,6369 L 5069,6369 5069,6367 4962,6367 4962,6369 Z"/>
 <path fill="rgb(0,69,134)" stroke="none" d="M 4746,6369 L 4854,6369 4854,6367 4746,6367 4746,6369 Z"/>
 <path fill="rgb(0,69,134)" stroke="none" d="M 4531,6369 L 4638,6369 4638,6366 4531,6366 4531,6369 Z"/>
 <path fill="rgb(0,69,134)" stroke="none" d="M 4315,6369 L 4423,6369 4423,6361 4315,6361 4315,6369 Z"/>
 <path fill="rgb(0,69,134)" stroke="none" d="M 4100,6369 L 4208,6369 4208,6366 4100,6366 4100,6369 Z"/>
 <path fill="rgb(0,69,134)" stroke="none" d="M 3884,6369 L 3992,6369 3992,6362 3884,6362 3884,6369 Z"/>
 <path fill="rgb(0,69,134)" stroke="none" d="M 3669,6369 L 3777,6369 3777,6367 3669,6367 3669,6369 Z"/>
 <path fill="rgb(0,69,134)" stroke="none" d="M 3454,6369 L 3561,6369 3561,6363 3454,6363 3454,6369 Z"/>
 <path fill="rgb(0,69,134)" stroke="none" d="M 3238,6369 L 3346,6369 3346,6043 3238,6043 3238,6369 Z"/>
 <path fill="rgb(0,69,134)" stroke="none" d="M 3023,6369 L 3130,6369 3130,6363 3023,6363 3023,6369 Z"/>
 <path fill="rgb(0,69,134)" stroke="none" d="M 2807,6369 L 2915,6369 2915,6341 2807,6341 2807,6369 Z"/>
 <path fill="rgb(0,69,134)" stroke="none" d="M 2592,6369 L 2700,6369 2700,6362 2592,6362 2592,6369 Z"/>
 <path fill="rgb(0,69,134)" stroke="none" d="M 2376,6369 L 2484,6369 2484,6323 2376,6323 2376,6369 Z"/>
 <text class="TextShape" transform="translate(2311,6620) rotate(89.9) translate(-2311,-6620)"><tspan class="TextParagraph" font-family="Liberation Sans, sans-serif" font-size="353px" font-weight="400"><tspan class="TextPosition" x="2311" y="6620"><tspan fill="rgb(0,0,0)" stroke="none">2008-11</tspan></tspan></tspan></text>
 <text class="TextShape" transform="translate(2958,6620) rotate(89.9) translate(-2958,-6620)"><tspan class="TextParagraph" font-family="Liberation Sans, sans-serif" font-size="353px" font-weight="400"><tspan class="TextPosition" x="2958" y="6620"><tspan fill="rgb(0,0,0)" stroke="none">2009-02</tspan></tspan></tspan></text>
 <text class="TextShape" transform="translate(3604,6620) rotate(89.9) translate(-3604,-6620)"><tspan class="TextParagraph" font-family="Liberation Sans, sans-serif" font-size="353px" font-weight="400"><tspan class="TextPosition" x="3604" y="6620"><tspan fill="rgb(0,0,0)" stroke="none">2009-07</tspan></tspan></tspan></text>
 <text class="TextShape" transform="translate(4250,6620) rotate(89.9) translate(-4250,-6620)"><tspan class="TextParagraph" font-family="Liberation Sans, sans-serif" font-size="353px" font-weight="400"><tspan class="TextPosition" x="4250" y="6620"><tspan fill="rgb(0,0,0)" stroke="none">2010-04</tspan></tspan></tspan></text>
 <text class="TextShape" transform="translate(4896,6620) rotate(89.9) translate(-4896,-6620)"><tspan class="TextParagraph" font-family="Liberation Sans, sans-serif" font-size="353px" font-weight="400"><tspan class="TextPosition" x="4896" y="6620"><tspan fill="rgb(0,0,0)" stroke="none">2010-12</tspan></tspan></tspan></text>
 <text class="TextShape" transform="translate(5543,6620) rotate(89.9) translate(-5543,-6620)"><tspan class="TextParagraph" font-family="Liberation Sans, sans-serif" font-size="353px" font-weight="400"><tspan class="TextPosition" x="5543" y="6620"><tspan fill="rgb(0,0,0)" stroke="none">2011-04</tspan></tspan></tspan></text>
 <text class="TextShape" transform="translate(6189,6620) rotate(89.9) translate(-6189,-6620)"><tspan class="TextParagraph" font-family="Liberation Sans, sans-serif" font-size="353px" font-weight="400"><tspan class="TextPosition" x="6189" y="6620"><tspan fill="rgb(0,0,0)" stroke="none">2011-08</tspan></tspan></tspan></text>
 <text class="TextShape" transform="translate(6835,6620) rotate(89.9) translate(-6835,-6620)"><tspan class="TextParagraph" font-family="Liberation Sans, sans-serif" font-size="353px" font-weight="400"><tspan class="TextPosition" x="6835" y="6620"><tspan fill="rgb(0,0,0)" stroke="none">2012-05</tspan></tspan></tspan></text>
 <text class="TextShape" transform="translate(7482,6620) rotate(89.9) translate(-7482,-6620)"><tspan class="TextParagraph" font-family="Liberation Sans, sans-serif" font-size="353px" font-weight="400"><tspan class="TextPosition" x="7482" y="6620"><tspan fill="rgb(0,0,0)" stroke="none">2013-01</tspan></tspan></tspan></text>
 <text class="TextShape" transform="translate(8127,6620) rotate(89.9) translate(-8127,-6620)"><tspan class="TextParagraph" font-family="Liberation Sans, sans-serif" font-size="353px" font-weight="400"><tspan class="TextPosition" x="8127" y="6620"><tspan fill="rgb(0,0,0)" stroke="none">2014-01</tspan></tspan></tspan></text>
 <text class="TextShape" transform="translate(8773,6620) rotate(89.9) translate(-8773,-6620)"><tspan class="TextParagraph" font-family="Liberation Sans, sans-serif" font-size="353px" font-weight="400"><tspan class="TextPosition" x="8773" y="6620"><tspan fill="rgb(0,0,0)" stroke="none">2014-06</tspan></tspan></tspan></text>
 <text class="TextShape" transform="translate(9420,6620) rotate(89.9) translate(-9420,-6620)"><tspan class="TextParagraph" font-family="Liberation Sans, sans-serif" font-size="353px" font-weight="400"><tspan class="TextPosition" x="9420" y="6620"><tspan fill="rgb(0,0,0)" stroke="none">2014-09</tspan></tspan></tspan></text>
 <text class="TextShape" transform="translate(10066,6620) rotate(89.9) translate(-10066,-6620)"><tspan class="TextParagraph" font-family="Liberation Sans, sans-serif" font-size="353px" font-weight="400"><tspan class="TextPosition" x="10066" y="6620"><tspan fill="rgb(0,0,0)" stroke="none">2014-12</tspan></tspan></tspan></text>
 <text class="TextShape" transform="translate(10712,6620) rotate(89.9) translate(-10712,-6620)"><tspan class="TextParagraph" font-family="Liberation Sans, sans-serif" font-size="353px" font-weight="400"><tspan class="TextPosition" x="10712" y="6620"><tspan fill="rgb(0,0,0)" stroke="none">2015-03</tspan></tspan></tspan></text>
 <text class="TextShape" transform="translate(11359,6620) rotate(89.9) translate(-11359,-6620)"><tspan class="TextParagraph" font-family="Liberation Sans, sans-serif" font-size="353px" font-weight="400"><tspan class="TextPosition" x="11359" y="6620"><tspan fill="rgb(0,0,0)" stroke="none">2015-06</tspan></tspan></tspan></text>
 <text class="TextShape" transform="translate(12005,6620) rotate(89.9) translate(-12005,-6620)"><tspan class="TextParagraph" font-family="Liberation Sans, sans-serif" font-size="353px" font-weight="400"><tspan class="TextPosition" x="12005" y="6620"><tspan fill="rgb(0,0,0)" stroke="none">2015-09</tspan></tspan></tspan></text>
 <text class="TextShape" transform="translate(12651,6620) rotate(89.9) translate(-12651,-6620)"><tspan class="TextParagraph" font-family="Liberation Sans, sans-serif" font-size="353px" font-weight="400"><tspan class="TextPosition" x="12651" y="6620"><tspan fill="rgb(0,0,0)" stroke="none">2015-12</tspan></tspan></tspan></text>
 <text class="TextShape" transform="translate(13297,6620) rotate(89.9) translate(-13297,-6620)"><tspan class="TextParagraph" font-family="Liberation Sans, sans-serif" font-size="353px" font-weight="400"><tspan class="TextPosition" x="13297" y="6620"><tspan fill="rgb(0,0,0)" stroke="none">2016-03</tspan></tspan></tspan></text>
 <text class="TextShape" transform="translate(13944,6620) rotate(89.9) translate(-13944,-6620)"><tspan class="TextParagraph" font-family="Liberation Sans, sans-serif" font-size="353px" font-weight="400"><tspan class="TextPosition" x="13944" y="6620"><tspan fill="rgb(0,0,0)" stroke="none">2016-06</tspan></tspan></tspan></text>
 <text class="TextShape" transform="translate(14590,6620) rotate(89.9) translate(-14590,-6620)"><tspan class="TextParagraph" font-family="Liberation Sans, sans-serif" font-size="353px" font-weight="400"><tspan class="TextPosition" x="14590" y="6620"><tspan fill="rgb(0,0,0)" stroke="none">2016-09</tspan></tspan></tspan></text>
 <text class="TextShape" transform="translate(15236,6620) rotate(89.9) translate(-15236,-6620)"><tspan class="TextParagraph" font-family="Liberation Sans, sans-serif" font-size="353px" font-weight="400"><tspan class="TextPosition" x="15236" y="6620"><tspan fill="rgb(0,0,0)" stroke="none">2016-12</tspan></tspan></tspan></text>
 <text class="TextShape"><tspan class="TextParagraph" font-family="Liberation Sans, sans-serif" font-size="353px" font-weight="400"><tspan class="TextPosition" x="1888" y="6490"><tspan fill="rgb(0,0,0)" stroke="none">0</tspan></tspan></tspan></text>
 <text class="TextShape"><tspan class="TextParagraph" font-family="Liberation Sans, sans-serif" font-size="353px" font-weight="400"><tspan class="TextPosition" x="1332" y="5946"><tspan fill="rgb(0,0,0)" stroke="none">1000</tspan></tspan></tspan></text>
 <text class="TextShape"><tspan class="TextParagraph" font-family="Liberation Sans, sans-serif" font-size="353px" font-weight="400"><tspan class="TextPosition" x="1332" y="5402"><tspan fill="rgb(0,0,0)" stroke="none">2000</tspan></tspan></tspan></text>
 <text class="TextShape"><tspan class="TextParagraph" font-family="Liberation Sans, sans-serif" font-size="353px" font-weight="400"><tspan class="TextPosition" x="1332" y="4858"><tspan fill="rgb(0,0,0)" stroke="none">3000</tspan></tspan></tspan></text>
 <text class="TextShape"><tspan class="TextParagraph" font-family="Liberation Sans, sans-serif" font-size="353px" font-weight="400"><tspan class="TextPosition" x="1332" y="4314"><tspan fill="rgb(0,0,0)" stroke="none">4000</tspan></tspan></tspan></text>
 <text class="TextShape"><tspan class="TextParagraph" font-family="Liberation Sans, sans-serif" font-size="353px" font-weight="400"><tspan class="TextPosition" x="1332" y="3770"><tspan fill="rgb(0,0,0)" stroke="none">5000</tspan></tspan></tspan></text>
 <text class="TextShape"><tspan class="TextParagraph" font-family="Liberation Sans, sans-serif" font-size="353px" font-weight="400"><tspan class="TextPosition" x="1332" y="3225"><tspan fill="rgb(0,0,0)" stroke="none">6000</tspan></tspan></tspan></text>
 <text class="TextShape"><tspan class="TextParagraph" font-family="Liberation Sans, sans-serif" font-size="353px" font-weight="400"><tspan class="TextPosition" x="1332" y="2682"><tspan fill="rgb(0,0,0)" stroke="none">7000</tspan></tspan></tspan></text>
 <text class="TextShape"><tspan class="TextParagraph" font-family="Liberation Sans, sans-serif" font-size="353px" font-weight="400"><tspan class="TextPosition" x="1332" y="2138"><tspan fill="rgb(0,0,0)" stroke="none">8000</tspan></tspan></tspan></text>
 <text class="TextShape"><tspan class="TextParagraph" font-family="Liberation Sans, sans-serif" font-size="353px" font-weight="400"><tspan class="TextPosition" x="1332" y="1594"><tspan fill="rgb(0,0,0)" stroke="none">9000</tspan></tspan></tspan></text>
 <text class="TextShape"><tspan class="TextParagraph" font-family="Liberation Sans, sans-serif" font-size="459px" font-weight="400"><tspan class="TextPosition" x="6756" y="851"><tspan fill="rgb(0,0,0)" stroke="none">DSA Activity </tspan></tspan></tspan></text>
 <text class="TextShape"><tspan class="TextParagraph" font-family="Liberation Sans, sans-serif" font-size="318px" font-weight="400"><tspan class="TextPosition" x="7698" y="8405"><tspan fill="rgb(0,0,0)" stroke="none">Year, Month</tspan></tspan></tspan></text>
 <text class="TextShape" transform="translate(837,5681) rotate(-90) translate(-837,-5681)"><tspan class="TextParagraph" font-family="Liberation Sans, sans-serif" font-size="318px" font-weight="400"><tspan class="TextPosition" x="837" y="5681"><tspan fill="rgb(0,0,0)" stroke="none">Lines Changed</tspan></tspan></tspan></text>
</svg>